<svg width="21" height="20" viewBox="0 0 21 20" fill="none" xmlns="http://www.w3.org/2000/svg">
<path d="M14.7355 12.2734L11.7957 14.9649C8.87925 13.4254 6.46443 11.1968 4.79623 8.50523L7.71267 5.79217C7.98098 5.53379 8.09764 5.1785 8.02765 4.82322L7.15271 0.86129C7.04772 0.366048 6.56942 0 6.00947 0H1.16817C0.514883 0 -0.0334093 0.506008 0.00158804 1.10891C0.199906 4.22032 1.2265 7.13794 2.83637 9.68951C4.67957 12.6287 7.3277 15.0618 10.5008 16.7628C13.2656 18.2378 16.427 19.196 19.7984 19.379C20.4517 19.4113 21 18.9053 21 18.3024V13.8345C21 13.3177 20.6034 12.8763 20.0667 12.7794L15.7854 11.9935C15.599 11.956 15.4054 11.962 15.2221 12.0109C15.0388 12.0597 14.8715 12.1499 14.7355 12.2734Z" fill="#232323"/>
</svg>
