<svg width="21" height="15" viewBox="0 0 21 15" fill="none" xmlns="http://www.w3.org/2000/svg">
<path d="M19.6875 0H1.3125C0.964403 0 0.630564 0.131696 0.384422 0.366116C0.138281 0.600537 0 0.918479 0 1.25V13.75C0 14.0815 0.138281 14.3995 0.384422 14.6339C0.630564 14.8683 0.964403 15 1.3125 15H19.6875C20.0356 15 20.3694 14.8683 20.6156 14.6339C20.8617 14.3995 21 14.0815 21 13.75V1.25C21 0.918479 20.8617 0.600537 20.6156 0.366116C20.3694 0.131696 20.0356 0 19.6875 0ZM18.6769 13.75H2.40188L6.99563 9.225L6.05063 8.35625L1.3125 13.025V2.2L9.46969 9.93125C9.7156 10.1641 10.0483 10.2947 10.395 10.2947C10.7417 10.2947 11.0744 10.1641 11.3203 9.93125L19.6875 2.00625V12.9437L14.8575 8.34375L13.9322 9.225L18.6769 13.75ZM2.17219 1.25H18.6244L10.395 9.04375L2.17219 1.25Z" fill="black"/>
</svg>
