<svg width="13" height="8" viewBox="0 0 13 8" fill="none" xmlns="http://www.w3.org/2000/svg">
<path d="M12.3833 1.43339L6.78333 7.05005C6.71667 7.11672 6.64444 7.16405 6.56667 7.19205C6.48889 7.22005 6.40556 7.23383 6.31667 7.23339C6.22778 7.23339 6.14444 7.21961 6.06667 7.19205C5.98889 7.1645 5.91667 7.11717 5.85 7.05005L0.233333 1.43339C0.0777774 1.27783 -2.68825e-07 1.08339 -2.79025e-07 0.850056C-2.89224e-07 0.616723 0.083333 0.416723 0.25 0.250056C0.416666 0.0833897 0.611111 5.62401e-05 0.833333 5.62304e-05C1.05556 5.62206e-05 1.25 0.0833897 1.41667 0.250056L6.31667 5.15005L11.2167 0.250056C11.3722 0.0945005 11.564 0.0167222 11.792 0.0167222C12.02 0.0167222 12.2171 0.100056 12.3833 0.266722C12.55 0.433389 12.6333 0.627833 12.6333 0.850056C12.6333 1.07228 12.55 1.26672 12.3833 1.43339Z" fill="white"/>
</svg>
